PathFileType	4	(X/Y/Z)	RBDS024static.trc
DataRate	CameraRate	NumFrames	NumMarkers	Units	OrigDataRate	OrigDataStartFrame	OrigNumFrames
150.000000	150.000000	4	48	mm	150.000000	0	150
Frame#	Time	L.Ankle			L.Ankle.Medial			L.ASIS			L.GTR			L.Heel.Bottom			L.Heel.Lateral			L.Heel.Top			L.HF			L.Iliac.Crest			L.Knee			L.Knee.Medial			L.MT1			L.MT2			L.MT5			L.PSIS			L.Shank.Bottom.Lateral			L.Shank.Bottom.Medial			L.Shank.Top.Lateral			L.Shank.Top.Medial			L.Thigh.Bottom.Lateral			L.Thigh.Bottom.Medial			L.Thigh.Top.Lateral			L.Thigh.Top.Medial			L.TT			R.Ankle			R.Ankle.Medial			R.ASIS			R.GTR			R.Heel.Bottom			R.Heel.Lateral			R.Heel.Top			R.HF			R.Iliac.Crest			R.Knee			R.Knee.Medial			R.MT1			R.MT2			R.MT5			R.PSIS			R.Shank.Bottom.Lateral			R.Shank.Bottom.Medial			R.Shank.Top.Lateral			R.Shank.Top.Medial			R.Thigh.Bottom.Lateral			R.Thigh.Bottom.Medial			R.Thigh.Top.Lateral			R.Thigh.Top.Medial			R.TT			
		X1	Y1	Z1	X2	Y2	Z2	X3	Y3	Z3	X4	Y4	Z4	X5	Y5	Z5	X6	Y6	Z6	X7	Y7	Z7	X8	Y8	Z8	X9	Y9	Z9	X10	Y10	Z10	X11	Y11	Z11	X12	Y12	Z12	X13	Y13	Z13	X14	Y14	Z14	X15	Y15	Z15	X16	Y16	Z16	X17	Y17	Z17	X18	Y18	Z18	X19	Y19	Z19	X20	Y20	Z20	X21	Y21	Z21	X22	Y22	Z22	X23	Y23	Z23	X24	Y24	Z24	X25	Y25	Z25	X26	Y26	Z26	X27	Y27	Z27	X28	Y28	Z28	X29	Y29	Z29	X30	Y30	Z30	X31	Y31	Z31	X32	Y32	Z32	X33	Y33	Z33	X34	Y34	Z34	X35	Y35	Z35	X36	Y36	Z36	X37	Y37	Z37	X38	Y38	Z38	X39	Y39	Z39	X40	Y40	Z40	X41	Y41	Z41	X42	Y42	Z42	X43	Y43	Z43	X44	Y44	Z44	X45	Y45	Z45	X46	Y46	Z46	X47	Y47	Z47	X48	Y48	Z48	

1	0	718.462158203125	108.3935470581055	1047.093505859375	736.38427734375	115.369384765625	1133.780517578125	908.8225708007813	1014.365051269531	1097.5615234375	814.9051513671875	922.3480834960938	1031.613891601563	645.6932373046875	41.20273208618164	1090.175659179688	667.9525146484375	61.54661560058594	1047.87890625	654.7413940429688	85.43351745605469	1091.619140625	774.3098754882813	468.3475341796875	1036.50390625	815.1299438476563	1083.414916992188	1044.50048828125	786.7876586914063	530.01513671875	1041.012817382813	768.6823120117188	517.954833984375	1166.483764648438	869.6119384765625	54.63489532470703	1128.1748046875	876.036865234375	66.14564514160156	1089.186279296875	834.5940551757813	49.09936904907227	1013.281066894531	723.6580810546875	1055.565307617188	1160.082397460938	728.4794921875	183.1998291015625	1039.279174804688	683.5279541015625	188.1243438720703	1063.73046875	731.2609252929688	262.1235046386719	1021.045776367188	685.6205444335938	271.4106750488281	1047.431396484375	782.1578979492188	654.397216796875	1022.704406738281	721.3672485351563	656.3290405273438	1060.75927734375	780.2819213867188	764.832763671875	1020.702087402344	725.6685791015625	766.9030151367188	1062.025756835938	824.2767944335938	450.3553161621094	1090.843139648438	705.6604614257813	109.5574951171875	1410.828002929688	726.8649291992188	115.3576431274414	1322.451782226563	897.4644165039063	1011.326721191406	1336.95556640625	807.7122802734375	923.9228515625	1396.135864257813	635.5765380859375	43.78609466552734	1366.374877929688	666.7955932617188	63.20397186279297	1411.326049804688	644.0681762695313	87.50930786132813	1365.93994140625	776.7371826171875	475.5205993652344	1408.943359375	823.983154296875	1081.576171875	1384.702392578125	795.3760986328125	537.0967407226563	1400.545288085938	777.643798828125	515.0794677734375	1275.51806640625	852.8614501953125	56.80255889892578	1323.875732421875	861.000732421875	73.51216888427734	1369.1240234375	827.9595336914063	51.72835540771484	1440.76513671875	724.1737670898438	1052.19677734375	1263.410766601563	705.5733032226563	191.8097839355469	1417.589965820313	667.96728515625	199.6664276123047	1376.828247070313	707.6118774414063	272.5341796875	1428.996948242188	672.0361328125	279.8066711425781	1389.1943359375	772.9470825195313	656.2245483398438	1413.017211914063	716.3157958984375	657.536865234375	1366.02685546875	772.2460327148438	765.993896484375	1412.18505859375	719.2890625	766.9341430664063	1367.423706054688	827.724853515625	449.657958984375	1359.093505859375	
2	0.006666666666666667	718.4578857421875	108.3966751098633	1047.09033203125	736.384521484375	115.367919921875	1133.772827148438	908.785400390625	1014.369323730469	1097.5458984375	814.8889770507813	922.3516845703125	1031.610473632813	645.6927490234375	41.19020080566406	1090.188232421875	667.9533081054688	61.54029846191406	1047.878784179688	654.7424926757813	85.43090057373047	1091.607055664063	774.3067016601563	468.3539123535156	1036.505981445313	815.114990234375	1083.415893554688	1044.500366210938	786.7584228515625	530.0191650390625	1041.022216796875	768.680419921875	517.9595947265625	1166.483032226563	869.6158447265625	54.63782119750977	1128.175170898438	876.02587890625	66.14666748046875	1089.18798828125	834.589599609375	49.1124153137207	1013.256591796875	723.6292724609375	1055.569580078125	1160.081298828125	728.468017578125	183.2052154541016	1039.268920898438	683.5162963867188	188.1210021972656	1063.736083984375	731.2589721679688	262.1300048828125	1021.051696777344	685.61669921875	271.40478515625	1047.429321289063	782.1371459960938	654.3981323242188	1022.692016601563	721.3429565429688	656.3331909179688	1060.752197265625	780.2670288085938	764.8383178710938	1020.696838378906	725.6388549804688	766.9136962890625	1062.01611328125	824.260986328125	450.361572265625	1090.826049804688	705.6539306640625	109.5689010620117	1410.8154296875	726.8572998046875	115.3544769287109	1322.462036132813	897.4410400390625	1011.342590332031	1336.949951171875	807.6937866210938	923.9231567382813	1396.131591796875	635.5720825195313	43.79204559326172	1366.368530273438	666.7919311523438	63.20342254638672	1411.3291015625	644.068359375	87.50721740722656	1365.939453125	776.7474975585938	475.5157775878906	1408.945434570313	823.95166015625	1081.5791015625	1384.698120117188	795.3716430664063	537.097412109375	1400.544799804688	777.63916015625	515.0884399414063	1275.52685546875	852.859130859375	56.8064079284668	1323.871459960938	860.997802734375	73.507080078125	1369.124633789063	827.961669921875	51.73455047607422	1440.762939453125	724.1581420898438	1052.199096679688	1263.42431640625	705.5691528320313	191.8173828125	1417.584594726563	667.9674072265625	199.6718597412109	1376.81494140625	707.6106567382813	272.533447265625	1428.991821289063	672.0325927734375	279.8087463378906	1389.18701171875	772.9398803710938	656.2247314453125	1413.019287109375	716.30126953125	657.5360717773438	1366.023803710938	772.2295532226563	765.9903564453125	1412.191040039063	719.2788696289063	766.9315185546875	1367.421020507813	827.7324829101563	449.6608581542969	1359.088256835938	
3	0.01333333333333333	718.453857421875	108.3978576660156	1047.090209960938	736.3917846679688	115.3721237182617	1133.780517578125	908.7550048828125	1014.374084472656	1097.54296875	814.8580932617188	922.3492431640625	1031.599243164063	645.6904907226563	41.19865417480469	1090.167602539063	667.9484252929688	61.54697036743164	1047.87353515625	654.7390747070313	85.43143463134766	1091.613159179688	774.2926025390625	468.3536682128906	1036.496704101563	815.0955810546875	1083.423095703125	1044.498901367188	786.7501220703125	530.0345458984375	1041.001586914063	768.6690673828125	517.955322265625	1166.483642578125	869.6116333007813	54.63958740234375	1128.186889648438	876.02783203125	66.14913940429688	1089.189331054688	834.6006469726563	49.1092414855957	1013.2724609375	723.5996704101563	1055.565795898438	1160.072875976563	728.4742431640625	183.1992492675781	1039.272583007813	683.520263671875	188.1173248291016	1063.726440429688	731.25146484375	262.1298828125	1021.054565429688	685.6060791015625	271.4069213867188	1047.428833007813	782.118896484375	654.3941650390625	1022.690734863281	721.324462890625	656.3363037109375	1060.7548828125	780.2449951171875	764.835693359375	1020.680480957031	725.62060546875	766.9080810546875	1062.01318359375	824.2433471679688	450.3578796386719	1090.824829101563	705.6607055664063	109.5609664916992	1410.804565429688	726.8644409179688	115.4837036132813	1322.3681640625	897.4122314453125	1011.339721679688	1336.9423828125	807.67578125	923.918701171875	1396.129028320313	635.576416015625	43.7873649597168	1366.370239257813	666.7987670898438	63.1983757019043	1411.32275390625	644.0711059570313	87.50403594970703	1365.935791015625	776.7373657226563	475.5040893554688	1408.933837890625	823.9297485351563	1081.578979492188	1384.706298828125	795.3624267578125	537.0966186523438	1400.552978515625	777.609130859375	515.0921020507813	1275.512817382813	852.8609008789063	56.79428100585938	1323.873779296875	860.985107421875	73.51024627685547	1369.123413085938	827.9593505859375	51.73411178588867	1440.758056640625	724.1310424804688	1052.201049804688	1263.4169921875	705.5726928710938	191.8194427490234	1417.582153320313	667.9642944335938	199.6748352050781	1376.818359375	707.6106567382813	272.5305480957031	1428.988037109375	672.0253295898438	279.8105163574219	1389.191772460938	772.9296875	656.2239990234375	1413.030883789063	716.2952880859375	657.5289916992188	1366.016723632813	772.2160034179688	765.9949340820313	1412.1865234375	719.2626953125	766.9234619140625	1367.41796875	827.7222290039063	449.6600646972656	1359.102294921875	
4	0.02	718.4528198242188	108.3920440673828	1047.096557617188	736.3833618164063	115.3825225830078	1133.768676757813	908.7256469726563	1014.3720703125	1097.534423828125	814.8438110351563	922.3488159179688	1031.607666015625	645.6947631835938	41.19903945922852	1090.17919921875	667.9522705078125	61.54279708862305	1047.8818359375	654.7437133789063	85.42585754394531	1091.608032226563	774.2813720703125	468.3545532226563	1036.494995117188	815.0654296875	1083.423706054688	1044.491455078125	786.7346801757813	530.0314331054688	1040.997314453125	768.6531982421875	517.9655151367188	1166.481567382813	869.6080932617188	54.63907241821289	1128.178100585938	876.0240478515625	66.15010833740234	1089.183349609375	834.5914916992188	49.11215972900391	1013.270690917969	723.5778198242188	1055.565185546875	1160.076049804688	728.4703369140625	183.1980133056641	1039.275146484375	683.5156860351563	188.1154174804688	1063.74169921875	731.2509155273438	262.1296691894531	1021.05078125	685.6028442382813	271.4017639160156	1047.42333984375	782.0999145507813	654.4031982421875	1022.68359375	721.3072509765625	656.3353881835938	1060.741821289063	780.2252197265625	764.8309326171875	1020.684204101563	725.5940551757813	766.9019165039063	1062.012573242188	824.2314453125	450.3663024902344	1090.812622070313	705.6565551757813	109.5559158325195	1410.816650390625	726.867919921875	115.345817565918	1322.468017578125	897.39013671875	1011.352111816406	1336.956176757813	807.659423828125	923.9231567382813	1396.131591796875	635.5772705078125	43.78649139404297	1366.379150390625	666.7921142578125	63.20871734619141	1411.327514648438	644.0618286132813	87.51426696777344	1365.938354492188	776.7337036132813	475.5202026367188	1408.944702148438	823.9179077148438	1081.585693359375	1384.714965820313	795.364501953125	537.0958251953125	1400.5498046875	777.6126708984375	515.0845336914063	1275.510498046875	852.8598022460938	56.80598449707031	1323.8759765625	860.9896850585938	73.50560760498047	1369.125854492188	827.959716796875	51.73690414428711	1440.764038085938	724.1090087890625	1052.199340820313	1263.419311523438	705.5712890625	191.8130798339844	1417.582885742188	667.9616088867188	199.6674194335938	1376.818359375	707.603515625	272.5360717773438	1428.989868164063	672.023681640625	279.8126831054688	1389.185668945313	772.9207763671875	656.2283935546875	1413.023315429688	716.2874145507813	657.52734375	1366.014038085938	772.208740234375	765.9927368164063	1412.188232421875	719.2486572265625	766.9180908203125	1367.425659179688	827.7227783203125	449.6600646972656	1359.08544921875	
